<?xml version="1.0" standalone="no"?>
<!DOCTYPE svg PUBLIC "-//W3C//DTD SVG 20010904//EN"
 "http://www.w3.org/TR/2001/REC-SVG-20010904/DTD/svg10.dtd">
<svg version="1.0" xmlns="http://www.w3.org/2000/svg"
 width="96.000000pt" height="96.000000pt" viewBox="0 0 96.000000 96.000000"
 preserveAspectRatio="xMidYMid meet">

<g transform="translate(0.000000,96.000000) scale(0.100000,-0.100000)"
fill="#1e1e1e" stroke="none">
<path d="M685 716 c-71 -31 -123 -129 -111 -209 23 -140 155 -212 277 -151
132 66 129 294 -4 355 -49 22 -119 24 -162 5z m140 -66 c95 -59 73 -219 -34
-251 -32 -9 -44 -8 -76 7 -51 24 -75 66 -75 133 0 49 3 57 39 92 31 31 46 39
76 39 21 0 52 -9 70 -20z"/>
<path d="M76 537 c-36 -101 -66 -187 -66 -191 0 -4 14 -6 32 -4 27 3 33 9 46
46 l14 43 76 -3 75 -3 15 -42 c12 -39 17 -43 47 -43 l34 0 -39 108 c-104 290
-92 267 -132 270 l-35 3 -67 -184z m129 33 c10 -30 20 -61 23 -67 3 -10 -11
-13 -51 -13 l-55 0 26 75 c15 40 30 71 33 67 4 -4 15 -32 24 -62z"/>
<path d="M510 445 c0 -42 -2 -45 -19 -35 -72 38 -147 -51 -107 -128 19 -36 32
-41 109 -40 l57 1 0 123 c0 117 -1 124 -20 124 -17 0 -20 -7 -20 -45z m-11
-79 c7 -8 11 -30 9 -48 -2 -25 -9 -35 -30 -42 -49 -17 -84 35 -58 85 13 23 62
26 79 5z"/>
</g>
</svg>
