<?xml version="1.0" standalone="no"?>
<!DOCTYPE svg PUBLIC "-//W3C//DTD SVG 20010904//EN"
 "http://www.w3.org/TR/2001/REC-SVG-20010904/DTD/svg10.dtd">
<svg version="1.0" xmlns="http://www.w3.org/2000/svg"
 width="293.000000pt" height="40.000000pt" viewBox="0 0 293.000000 40.000000"
 preserveAspectRatio="xMidYMid meet">

<g transform="translate(0.000000,40.000000) scale(0.100000,-0.100000)"
fill="#1e1e1e" stroke="none">
<path d="M0 200 l0 -190 1393 0 c1208 1 1388 3 1360 15 -57 25 -122 75 -139
107 -45 87 36 165 241 234 l70 23 -1462 1 -1463 0 0 -190z m220 85 c7 -8 10
-29 8 -47 -3 -18 0 -40 5 -50 8 -11 8 -26 1 -45 -8 -25 -15 -28 -57 -31 l-47
-3 0 95 0 96 39 0 c22 0 44 -6 51 -15z m88 -83 c3 -87 2 -92 -18 -92 -19 0
-20 6 -20 96 0 86 2 95 18 92 14 -3 17 -17 20 -96z m72 18 c0 -79 0 -80 25
-80 16 0 25 -6 25 -15 0 -11 -12 -15 -45 -15 l-45 0 0 95 c0 88 1 95 20 95 18
0 20 -7 20 -80z m158 68 c17 -17 15 -48 -3 -48 -9 0 -18 7 -21 15 -4 8 -10 15
-15 15 -18 0 -8 -28 22 -59 23 -25 29 -40 27 -64 -3 -29 -6 -32 -42 -35 -40
-3 -56 8 -56 41 0 21 28 23 36 2 4 -8 10 -15 15 -15 18 0 8 27 -21 55 -48 46
-37 105 20 105 14 0 31 -5 38 -12z m83 -20 l0 -33 16 33 c10 18 24 32 35 32
23 0 22 -2 -2 -50 -20 -39 -20 -39 0 -85 24 -57 24 -55 2 -55 -11 0 -25 14
-35 33 l-16 32 0 -32 c-1 -26 -5 -33 -21 -33 -19 0 -20 7 -20 95 0 88 1 95 20
95 16 0 20 -7 21 -32z m186 -33 c26 -132 26 -125 5 -125 -11 0 -22 7 -26 15
-3 8 -12 15 -21 15 -8 0 -15 -7 -15 -15 0 -8 -9 -15 -20 -15 -24 0 -24 -6 -4
103 16 86 17 88 43 85 23 -3 27 -9 38 -63z m134 55 c16 -9 19 -22 19 -83 0
-44 -5 -78 -12 -85 -7 -7 -31 -12 -55 -12 l-43 0 0 88 c0 49 3 92 7 95 10 11
62 8 84 -3z m139 -5 c0 -9 -9 -15 -25 -15 -20 0 -25 -5 -25 -25 0 -18 5 -25
20 -25 11 0 20 -7 20 -15 0 -8 -9 -15 -20 -15 -32 0 -27 -48 5 -52 44 -5 32
-23 -17 -26 l-48 -3 0 95 0 96 45 0 c33 0 45 -4 45 -15z m118 3 c17 -17 15
-48 -3 -48 -9 0 -18 7 -21 15 -8 21 -24 19 -24 -3 0 -10 14 -29 30 -44 53 -46
34 -102 -32 -96 -28 2 -34 7 -36 31 -2 19 1 27 13 27 8 0 18 -7 21 -15 4 -8
10 -15 15 -15 18 0 8 27 -21 55 -48 46 -37 105 20 105 14 0 31 -5 38 -12z
m142 -3 c0 -10 -10 -15 -30 -15 -25 0 -30 -4 -30 -24 0 -18 6 -26 22 -28 32
-5 35 -28 4 -28 -21 0 -26 -5 -26 -25 0 -21 5 -25 30 -25 20 0 30 -5 30 -15 0
-11 -12 -15 -50 -15 l-50 0 0 95 0 95 50 0 c38 0 50 -4 50 -15z m86 -25 l12
-35 1 38 c1 31 4 38 19 35 14 -3 17 -17 20 -96 3 -91 3 -92 -21 -92 -21 0 -27
8 -38 48 l-13 47 -4 -47 c-2 -34 -7 -48 -18 -48 -11 0 -14 19 -14 96 0 92 1
95 22 92 14 -2 26 -15 34 -38z m181 24 c2 -6 -5 -14 -17 -17 -18 -5 -20 -13
-20 -81 0 -69 -2 -76 -20 -76 -18 0 -20 7 -20 80 0 64 -3 80 -15 80 -8 0 -15
7 -15 16 0 12 10 14 52 12 28 -2 53 -8 55 -14z m121 -1 c2 -9 -7 -13 -27 -13
-26 0 -31 -4 -31 -25 0 -18 5 -25 20 -25 11 0 20 -7 20 -15 0 -8 -9 -15 -20
-15 -15 0 -20 -7 -20 -24 0 -19 6 -25 27 -28 14 -2 28 -9 31 -15 2 -9 -11 -13
-47 -13 l-51 0 0 96 0 95 47 -3 c26 -2 48 -9 51 -15z m112 7 c10 -6 15 -32 17
-94 2 -79 1 -86 -17 -86 -14 0 -20 8 -22 32 -4 46 -28 49 -28 4 0 -29 -4 -36
-20 -36 -18 0 -20 7 -20 88 0 49 3 92 7 95 9 10 66 8 83 -3z m140 -5 c0 -9 -9
-15 -25 -15 -20 0 -25 -5 -25 -25 0 -18 5 -25 20 -25 11 0 20 -7 20 -15 0 -8
-9 -15 -20 -15 -15 0 -20 -7 -20 -25 0 -20 5 -25 25 -25 16 0 25 -6 25 -15 0
-11 -12 -15 -45 -15 l-45 0 0 95 0 95 45 0 c33 0 45 -4 45 -15z m130 0 c0 -8
-7 -15 -15 -15 -12 0 -15 -16 -15 -80 0 -73 -2 -80 -20 -80 -18 0 -20 7 -20
76 0 67 -2 76 -20 81 -11 3 -20 12 -20 19 0 10 15 14 55 14 42 0 55 -3 55 -15z
m177 -60 c7 -38 15 -80 18 -92 4 -18 1 -23 -15 -23 -11 0 -23 7 -26 15 -8 19
-30 19 -38 0 -3 -8 -13 -15 -22 -15 -17 0 -16 32 8 143 9 44 12 48 36 45 25
-3 28 -8 39 -73z m131 63 c17 -17 15 -48 -3 -48 -9 0 -18 7 -21 15 -8 21 -24
19 -24 -3 0 -10 14 -29 30 -44 52 -46 37 -101 -26 -96 -34 3 -39 6 -42 31 -2
19 1 27 13 27 8 0 18 -7 21 -15 4 -8 10 -15 15 -15 18 0 8 27 -21 55 -48 46
-37 105 20 105 14 0 31 -5 38 -12z"/>
<path d="M170 245 c0 -14 5 -25 10 -25 6 0 10 11 10 25 0 14 -4 25 -10 25 -5
0 -10 -11 -10 -25z"/>
<path d="M170 165 c0 -17 5 -25 13 -22 6 2 12 12 12 22 0 10 -6 20 -12 23 -8
2 -13 -6 -13 -23z"/>
<path d="M761 198 c-1 -16 4 -28 9 -28 12 0 12 8 0 35 -8 18 -9 17 -9 -7z"/>
<path d="M897 263 c-4 -3 -7 -33 -7 -65 0 -45 3 -58 15 -58 12 0 15 14 15 65
0 60 -6 75 -23 58z"/>
<path d="M1794 256 c-8 -21 3 -49 16 -41 5 3 10 15 10 25 0 25 -18 36 -26 16z"/>
<path d="M2238 195 c-3 -16 -1 -25 7 -25 8 0 10 9 7 25 -2 14 -6 25 -7 25 -1
0 -5 -11 -7 -25z"/>
</g>
</svg>
