<?xml version="1.0" standalone="no"?>
<!DOCTYPE svg PUBLIC "-//W3C//DTD SVG 20010904//EN"
 "http://www.w3.org/TR/2001/REC-SVG-20010904/DTD/svg10.dtd">
<svg version="1.0" xmlns="http://www.w3.org/2000/svg"
 width="208.000000pt" height="168.000000pt" viewBox="0 0 208.000000 168.000000"
 preserveAspectRatio="xMidYMid meet">

<g transform="translate(0.000000,168.000000) scale(0.100000,-0.100000)"
fill="#dadada" stroke="none">
<path d="M934 1542 c-55 -42 -142 -108 -194 -146 -52 -38 -146 -108 -208 -155
-63 -47 -140 -104 -172 -126 l-59 -40 -1 -175 c-1 -96 -3 -240 -6 -320 -2 -80
-4 -149 -4 -155 0 -5 -5 -3 -10 5 -9 13 -12 12 -25 -4 -8 -11 -15 -26 -15 -33
0 -7 -4 -13 -10 -13 -16 0 -12 27 10 67 11 21 20 46 20 55 0 26 -27 22 -46 -7
-20 -30 -31 -32 -39 -4 -5 15 1 29 19 48 26 27 34 65 17 75 -4 3 -19 -6 -31
-19 -30 -32 -36 -31 -45 2 -9 36 -52 93 -71 93 -27 0 -16 -54 17 -86 26 -24
59 -79 59 -99 0 -3 -18 -5 -39 -5 -22 0 -42 -4 -45 -9 -10 -15 32 -43 74 -48
32 -5 44 -12 55 -34 l15 -28 -52 -3 c-28 -2 -53 -8 -55 -14 -6 -17 55 -35 93
-28 29 5 34 3 49 -26 l17 -33 -34 7 c-23 4 -41 1 -57 -10 -32 -23 -12 -34 60
-34 63 0 69 -6 69 -68 0 -20 3 -54 6 -75 l7 -37 736 2 736 3 3 75 c4 90 12
103 66 97 44 -4 86 7 86 22 0 13 -39 25 -72 23 -18 -2 -28 3 -28 12 0 24 32
41 80 41 46 0 85 19 74 36 -3 5 -27 9 -55 9 -27 0 -49 3 -49 8 0 18 33 52 51
52 33 0 89 28 89 44 0 12 -11 16 -40 16 -29 0 -40 4 -40 15 0 24 27 72 45 78
8 4 23 22 32 42 13 28 14 38 4 48 -10 9 -19 4 -47 -25 -19 -21 -34 -47 -34
-57 0 -31 -17 -33 -44 -6 -50 50 -65 -3 -16 -58 26 -30 28 -36 16 -53 -14 -18
-15 -18 -36 9 -23 29 -50 36 -50 13 0 -7 11 -33 24 -58 15 -28 21 -50 16 -59
-7 -10 -11 -7 -19 13 -12 33 -31 45 -42 27 -5 -8 -9 123 -9 313 l0 326 -37 23
c-21 13 -80 57 -133 99 -52 42 -144 111 -205 154 -60 44 -167 123 -237 177
-70 55 -129 99 -131 99 -3 0 -49 -35 -103 -78z m310 -102 c278 -208 454 -341
482 -365 l23 -20 7 -372 c4 -205 4 -373 0 -373 -4 0 -17 7 -30 16 -16 10 -26
11 -30 5 -8 -12 16 -62 38 -80 9 -8 16 -22 16 -33 0 -29 -108 -138 -137 -138
-12 0 -23 4 -23 9 0 4 11 54 25 110 14 56 28 128 32 161 4 43 10 61 23 65 9 3
30 19 46 36 l29 32 -42 -6 -43 -5 0 34 c0 28 8 43 40 73 65 62 48 111 -19 55
l-31 -26 0 29 c0 16 11 44 25 63 14 19 25 42 25 52 0 27 -27 33 -50 13 -24
-22 -28 -1 -5 29 17 22 20 96 5 96 -5 0 -15 -9 -22 -20 -28 -44 -40 -7 -21 59
7 24 10 47 7 52 -8 14 -31 10 -38 -6 -10 -26 -26 -16 -45 28 -19 44 -65 77
-83 59 -15 -15 13 -61 49 -83 18 -11 38 -30 44 -41 10 -19 9 -20 -12 -14 -83
26 -100 15 -47 -29 24 -20 39 -25 59 -21 22 4 29 1 34 -15 9 -28 2 -32 -29
-18 -18 9 -30 9 -37 2 -12 -12 7 -34 63 -69 27 -17 38 -31 38 -48 0 -23 -2
-23 -29 -13 -15 5 -36 7 -46 3 -16 -6 -15 -10 11 -37 16 -17 41 -37 57 -45 18
-10 27 -22 27 -39 0 -28 -12 -32 -30 -10 -16 19 -60 20 -60 1 0 -15 64 -76 80
-76 6 0 10 -16 10 -35 0 -40 -9 -44 -35 -15 -10 11 -24 20 -32 20 -25 0 -13
-43 22 -76 21 -19 35 -42 35 -56 0 -24 -54 -256 -61 -262 -2 -2 -16 -6 -32
-10 -38 -9 -42 7 -28 113 14 114 12 121 -50 121 -27 0 -49 3 -49 6 0 3 13 23
30 44 30 38 50 80 50 106 0 21 -30 17 -57 -8 -21 -20 -23 -20 -23 -3 0 40 24
85 45 85 29 0 48 20 34 36 -7 9 -6 19 3 34 11 18 10 23 -5 35 -11 7 -25 11
-33 8 -8 -3 -14 1 -14 10 0 8 -7 20 -15 27 -13 10 -19 10 -33 -3 -9 -8 -30
-17 -47 -19 -26 -3 -30 -7 -30 -33 -1 -17 -4 -36 -8 -42 -5 -7 -2 -23 5 -35 6
-13 13 -29 14 -37 3 -17 25 -32 37 -24 14 8 27 -18 27 -54 0 -40 -6 -41 -42
-6 -21 20 -31 24 -40 15 -13 -13 13 -92 38 -113 14 -11 11 -15 -23 -24 -43
-12 -42 -5 -29 -147 l7 -88 -35 0 -36 0 0 351 0 351 -38 38 c-66 66 -175 77
-254 25 -75 -49 -73 -39 -76 -422 l-3 -343 -30 0 -30 0 7 114 7 115 -37 6 -36
7 19 27 c10 14 23 43 29 64 9 32 8 39 -5 44 -10 4 -24 -3 -39 -20 -27 -31 -34
-26 -34 25 0 35 3 39 22 36 28 -4 75 77 57 98 -6 8 -8 21 -5 30 9 23 -12 44
-44 44 -16 0 -30 7 -34 15 -9 24 -36 18 -46 -11 -6 -14 -14 -23 -19 -20 -4 3
-17 -1 -27 -9 -15 -11 -17 -17 -8 -33 8 -12 9 -24 2 -36 -12 -21 -2 -33 32
-38 18 -2 28 -13 39 -41 17 -47 10 -55 -25 -28 -20 16 -30 18 -40 10 -16 -13
2 -64 42 -117 30 -39 24 -49 -31 -54 l-40 -3 0 -50 c0 -27 4 -78 8 -112 l8
-63 -35 0 c-32 0 -35 3 -50 48 -9 26 -25 91 -36 145 l-20 97 40 36 c60 55 49
102 -13 54 l-25 -20 -4 31 c-4 25 0 33 23 44 27 15 69 60 69 76 0 15 -39 10
-65 -7 -25 -16 -25 -16 -25 14 0 22 6 32 20 37 29 9 80 54 80 71 0 17 -51 19
-68 2 -16 -16 -21 -8 -15 25 4 18 16 33 37 44 42 21 66 43 66 61 0 14 -24 13
-63 -3 -15 -6 -16 -4 -8 16 7 19 15 23 39 21 22 -2 39 5 64 27 30 27 31 30 14
37 -10 4 -33 2 -49 -4 -17 -6 -33 -10 -35 -7 -2 2 19 26 47 53 55 54 70 99 29
86 -34 -10 -56 -32 -68 -70 -13 -37 -21 -42 -40 -19 -33 40 -51 2 -28 -61 6
-17 8 -40 4 -50 -7 -18 -8 -17 -25 5 -38 50 -55 -7 -22 -72 20 -40 17 -45 -13
-22 -42 32 -50 -28 -11 -80 19 -24 24 -40 20 -58 l-7 -25 -23 24 c-13 13 -31
24 -40 24 -29 0 -16 -42 25 -81 32 -30 40 -45 40 -73 l0 -34 -41 5 c-52 7 -50
-11 4 -46 30 -20 37 -31 42 -70 6 -41 44 -208 61 -268 5 -19 2 -23 -18 -23
-17 0 -43 19 -86 64 -34 35 -62 66 -62 69 0 2 14 21 30 42 40 50 40 118 0 70
-7 -8 -17 -15 -22 -15 -6 0 -8 143 -6 371 l3 371 26 21 c52 43 681 516 688
517 2 0 94 -68 205 -150z m-179 -955 c4 -206 5 -381 2 -390 -4 -8 -18 -15 -32
-15 l-25 0 0 390 0 390 24 0 24 0 7 -375z m-85 -21 l0 -385 -22 3 -23 3 1 373
c1 380 2 391 37 392 4 0 7 -174 7 -386z m148 374 c9 -9 12 -108 12 -386 l0
-373 -22 3 -23 3 -3 383 c-2 394 -1 407 36 370z m62 -410 c0 -226 -4 -348 -10
-348 -6 0 -10 127 -10 363 0 237 4 357 10 347 6 -9 10 -155 10 -362z m-282 10
c-2 -227 -7 -353 -13 -353 -11 0 -20 641 -10 683 3 12 10 22 15 22 7 0 9 -124
8 -352z m-231 210 c-3 -8 -6 -5 -6 6 -1 11 2 17 5 13 3 -3 4 -12 1 -19z m59
-13 c-26 -19 -42 -19 -26 0 7 8 20 15 29 15 13 -1 13 -3 -3 -15z m629 4 c12
-19 -5 -23 -22 -6 -16 16 -16 17 -1 17 9 0 20 -5 23 -11z m-730 -9 c3 -5 1
-10 -4 -10 -6 0 -11 5 -11 10 0 6 2 10 4 10 3 0 8 -4 11 -10z m125 -40 c0 -5
-4 -10 -9 -10 -6 0 -13 5 -16 10 -3 6 1 10 9 10 9 0 16 -4 16 -10z m575 0 c-3
-5 -11 -10 -16 -10 -6 0 -7 5 -4 10 3 6 11 10 16 10 6 0 7 -4 4 -10z m-685
-10 c-20 -13 -33 -13 -25 0 3 6 14 10 23 10 15 0 15 -2 2 -10z m805 0 c3 -5
-1 -10 -9 -10 -8 0 -18 5 -21 10 -3 6 1 10 9 10 8 0 18 -4 21 -10z m-725 -38
c0 -15 -2 -15 -10 -2 -13 20 -13 33 0 25 6 -3 10 -14 10 -23z m626 2 c-4 -9
-9 -15 -11 -12 -3 3 -3 13 1 22 4 9 9 15 11 12 3 -3 3 -13 -1 -22z m-1066
-226 c-1 -43 -3 -49 -11 -35 -10 17 -4 87 6 87 3 0 5 -24 5 -52z m1512 -25
c-10 -29 -22 -10 -21 35 l1 47 12 -35 c7 -19 11 -41 8 -47z m-1022 -8 c0 -12
-15 -15 -70 -17 -38 -1 -77 -2 -87 -2 -9 -1 -18 4 -20 11 -3 8 15 13 59 16 35
2 75 4 91 5 18 1 27 -3 27 -13z m695 -6 c5 -5 -27 -9 -83 -9 -78 0 -92 2 -92
16 0 15 10 16 83 10 45 -4 86 -12 92 -17z m-709 -110 c-3 -39 -9 -75 -12 -80
-6 -11 -131 -12 -137 -1 -3 4 -8 40 -12 80 l-7 72 87 0 88 0 -7 -71z m706 26
c-2 -22 -7 -56 -11 -75 -7 -35 -7 -35 -65 -38 -78 -4 -86 5 -86 90 l0 69 82
-3 83 -3 -3 -40z m-1112 -67 c38 -42 37 -50 -2 -46 -30 3 -33 6 -36 41 -2 20
-1 37 3 37 3 0 19 -15 35 -32z m1391 -5 c-6 -34 -10 -38 -39 -41 -17 -2 -32 0
-32 4 0 10 61 74 70 74 4 0 4 -17 1 -37z"/>
</g>
</svg>
