<?xml version="1.0" standalone="no"?>
<!DOCTYPE svg PUBLIC "-//W3C//DTD SVG 20010904//EN"
 "http://www.w3.org/TR/2001/REC-SVG-20010904/DTD/svg10.dtd">
<svg version="1.0" xmlns="http://www.w3.org/2000/svg"
 width="2480.000000pt" height="409.000000pt" viewBox="0 0 2480.000000 409.000000"
 preserveAspectRatio="xMidYMid meet">

<g transform="translate(0.000000,409.000000) scale(0.100000,-0.100000)"
fill="#1e1e1e" stroke="none">
<path d="M20310 3045 l0 -215 525 0 525 0 0 215 0 215 -525 0 -525 0 0 -215z
m960 0 l0 -125 -435 0 -435 0 0 125 0 125 435 0 435 0 0 -125z"/>
<path d="M7365 2564 c-49 -12 -145 -48 -145 -55 0 -4 -8 -9 -18 -11 -9 -3 -29
-29 -45 -59 l-27 -54 0 -483 0 -483 118 3 117 3 5 432 c5 417 6 433 25 447 33
25 128 20 204 -10 36 -15 70 -27 76 -28 5 -1 28 -11 50 -23 22 -11 51 -24 65
-28 14 -4 45 -16 70 -27 25 -11 63 -28 85 -38 22 -10 85 -36 140 -58 55 -23
161 -66 235 -98 250 -104 303 -126 314 -128 6 -1 29 -11 51 -23 22 -11 51 -24
65 -28 14 -4 45 -16 70 -27 25 -11 63 -28 85 -38 22 -10 85 -36 140 -58 55
-23 161 -66 235 -98 251 -105 303 -126 314 -128 6 -1 20 -7 31 -13 11 -6 44
-16 73 -22 147 -31 335 8 401 84 51 60 51 60 51 570 l0 476 -117 -3 -118 -3
-3 -434 c-1 -282 -6 -439 -13 -447 -17 -21 -99 -26 -151 -11 -26 8 -49 12 -52
9 -4 -3 -6 0 -6 6 0 7 -5 12 -12 12 -6 0 -30 9 -52 19 -23 10 -88 38 -145 61
-57 23 -111 46 -120 50 -47 24 -140 58 -145 53 -3 -4 -6 -1 -6 5 0 7 -5 12
-12 12 -6 0 -30 8 -52 19 -23 10 -81 35 -131 56 -49 20 -103 43 -120 50 -16 7
-88 36 -160 65 -71 29 -142 58 -156 66 -15 7 -29 10 -33 7 -3 -4 -6 -1 -6 5 0
7 -6 12 -13 12 -7 0 -51 16 -97 36 -117 50 -253 106 -265 109 -5 1 -37 14 -70
29 -113 52 -145 66 -151 66 -4 0 -25 9 -48 19 -54 26 -271 112 -288 115 -7 1
-20 6 -28 11 -16 10 -182 17 -215 9z"/>
<path d="M600 1990 l0 -570 120 0 120 0 0 453 0 452 1382 0 1383 0 0 115 0
115 -1502 3 -1503 2 0 -570z"/>
<path d="M4525 2533 c-26 -16 -59 -55 -95 -109 -30 -46 -58 -84 -62 -84 -5 0
-8 -6 -8 -13 0 -7 -8 -22 -18 -33 -10 -10 -40 -55 -67 -99 -27 -44 -63 -98
-80 -120 -17 -22 -62 -87 -100 -145 -38 -58 -72 -106 -77 -108 -4 -2 -8 -8 -8
-12 0 -10 -56 -96 -77 -120 -7 -8 -33 -44 -56 -80 -23 -36 -54 -82 -69 -101
-16 -20 -28 -41 -28 -47 0 -7 -4 -12 -9 -12 -5 0 -11 -9 -14 -20 -5 -19 0 -20
136 -19 l142 0 49 77 c27 42 67 102 88 132 56 80 176 262 224 338 23 36 51 76
63 90 11 13 21 25 21 27 0 1 36 57 80 124 l80 121 702 0 703 -1 28 -37 c61
-79 227 -323 227 -332 0 -6 -326 -10 -873 -10 l-872 0 -50 -80 c-27 -44 -53
-80 -57 -80 -5 0 -8 -6 -8 -13 0 -7 -9 -23 -20 -35 -11 -12 -20 -24 -20 -27 0
-3 468 -5 1039 -5 l1040 0 50 -67 c28 -38 57 -77 66 -88 9 -11 33 -46 53 -77
l37 -57 138 -1 c124 0 164 8 122 24 -8 3 -20 16 -26 28 -20 45 -70 119 -101
150 -10 10 -18 24 -18 31 0 7 -9 18 -21 25 -12 7 -18 16 -15 19 5 5 -7 22 -54
80 -6 7 -10 17 -10 23 0 5 -4 10 -9 10 -5 0 -11 8 -15 18 -3 9 -26 44 -50 77
-25 33 -68 94 -95 135 -28 41 -61 88 -73 104 -13 16 -53 73 -89 125 -76 111
-142 205 -167 240 -9 13 -35 32 -57 42 -38 17 -86 19 -810 18 l-770 -1 -40
-25z"/>
<path d="M11134 2542 c-50 -28 -68 -45 -89 -85 -11 -21 -28 -43 -38 -49 -12
-6 -16 -16 -12 -26 3 -9 3 -13 -1 -9 -4 4 -35 -35 -69 -87 -33 -52 -69 -104
-79 -115 -10 -11 -15 -25 -10 -33 4 -7 4 -10 -1 -6 -7 6 -90 -97 -90 -112 0
-8 -49 -75 -57 -78 -4 -2 -8 -9 -8 -16 0 -7 -8 -21 -18 -32 -10 -10 -43 -59
-74 -109 -31 -49 -66 -100 -77 -112 -12 -12 -21 -24 -21 -27 0 -2 -34 -55 -75
-118 l-75 -113 128 -3 c130 -3 172 1 172 17 0 11 413 633 435 655 9 8 15 18
14 21 0 4 18 31 40 61 23 30 41 58 41 62 0 5 14 27 31 50 l31 42 704 0 703 0
12 -22 c7 -13 15 -25 19 -28 4 -3 28 -36 53 -75 25 -38 75 -110 111 -160 l66
-90 -873 -3 -874 -2 -42 -56 c-23 -30 -38 -60 -35 -66 4 -6 3 -8 -2 -5 -6 3
-27 -21 -47 -54 l-37 -59 1041 0 c980 0 1043 -1 1055 -17 8 -10 31 -43 51 -73
20 -30 39 -57 43 -60 3 -3 27 -35 53 -72 l48 -68 135 0 c83 0 134 4 134 10 0
6 -3 10 -7 10 -5 0 -19 17 -33 38 -14 20 -31 43 -38 51 -7 8 -27 37 -42 65
-16 29 -39 61 -50 73 -11 12 -20 25 -20 28 0 7 -46 69 -71 98 -9 9 -22 30 -30
45 -8 15 -22 36 -31 46 -10 11 -20 28 -24 38 -3 10 -10 18 -15 18 -5 0 -9 6
-9 13 0 7 -16 32 -35 54 -19 23 -35 46 -35 51 0 6 -3 12 -7 14 -9 4 -38 43
-107 148 -27 41 -68 100 -90 130 -42 56 -48 66 -88 132 -15 24 -41 47 -73 63
l-50 25 -765 0 c-702 -1 -768 -2 -796 -18z"/>
<path d="M14471 2499 c-206 -18 -328 -77 -383 -183 -30 -57 -36 -185 -14 -254
33 -98 142 -173 310 -212 153 -36 267 -40 1165 -40 495 0 912 -4 960 -10 91
-10 144 -34 149 -67 5 -36 -46 -81 -113 -100 -55 -16 -157 -18 -1272 -21
l-1213 -3 0 -120 0 -120 1238 4 c1315 4 1308 3 1462 53 99 32 160 78 194 145
22 45 26 66 26 137 0 47 -5 102 -12 124 -16 53 -80 123 -139 154 -118 59 -77
57 -1244 64 -788 5 -1084 10 -1124 19 -193 44 -186 142 14 182 44 9 369 13
1193 16 l1132 4 0 119 0 120 -1117 -1 c-615 -1 -1160 -5 -1212 -10z"/>
<path d="M17210 2390 l0 -120 415 0 415 0 0 -450 0 -450 120 0 120 0 0 450 0
450 375 0 375 0 0 120 0 120 -910 0 -910 0 0 -120z"/>
<path d="M19986 2487 c-42 -23 -37 -16 -572 -809 l-215 -318 148 0 149 0 304
455 305 455 699 -3 699 -2 129 -183 c70 -101 128 -185 128 -187 0 -3 -393 -5
-873 -5 l-874 0 -65 -97 c-35 -54 -72 -109 -81 -123 l-16 -25 1044 3 1044 2
102 -145 102 -145 145 0 c138 0 144 1 129 18 -8 9 -183 258 -387 552 -320 461
-376 538 -412 558 l-41 22 -776 0 -776 0 -39 -23z"/>
<path d="M22540 1940 l0 -570 815 0 815 0 0 120 0 120 -695 0 -695 0 0 450 0
450 -120 0 -120 0 0 -570z"/>
<path d="M987 2093 c-4 -3 -7 -57 -7 -120 l0 -113 840 0 841 0 -3 118 -3 117
-831 3 c-457 1 -834 -1 -837 -5z"/>
</g>
</svg>
