<?xml version="1.0" standalone="no"?>
<!DOCTYPE svg PUBLIC "-//W3C//DTD SVG 20010904//EN"
 "http://www.w3.org/TR/2001/REC-SVG-20010904/DTD/svg10.dtd">
<svg version="1.0" xmlns="http://www.w3.org/2000/svg"
 width="199.000000pt" height="69.000000pt" viewBox="0 0 199.000000 69.000000"
 preserveAspectRatio="xMidYMid meet">

<g transform="translate(0.000000,69.000000) scale(0.100000,-0.100000)"
fill="#1e1e1e" stroke="none">
<path d="M165 638 c-3 -7 -35 -147 -73 -310 l-69 -298 79 0 c43 0 78 2 78 4 0
12 89 388 93 392 2 2 12 -86 22 -196 l18 -200 57 0 57 0 84 184 c46 101 85
183 87 182 1 -2 -16 -80 -38 -175 -22 -94 -40 -176 -40 -181 0 -6 35 -10 80
-10 44 0 80 2 80 4 0 3 31 141 70 307 39 167 70 304 70 306 0 2 -42 3 -94 3
l-95 0 -101 -147 c-55 -82 -104 -146 -108 -144 -4 2 -21 67 -37 145 l-31 141
-92 3 c-68 2 -94 -1 -97 -10z"/>
<path d="M888 615 c-4 -35 -4 -35 34 -35 24 0 38 5 38 13 0 6 3 22 6 35 6 20
3 22 -34 22 -38 0 -40 -2 -44 -35z"/>
<path d="M1165 596 l-7 -55 -49 6 c-47 6 -51 4 -84 -31 -104 -110 -53 -314 60
-240 15 10 25 12 25 5 0 -6 15 -11 34 -11 l34 0 17 98 c10 53 25 139 35 190
l17 92 -38 0 -38 0 -6 -54z m-36 -115 c12 -8 12 -19 2 -73 -13 -64 -22 -78
-54 -78 -45 0 -41 112 6 145 25 17 27 18 46 6z"/>
<path d="M1306 604 c-3 -9 -6 -25 -6 -36 0 -11 -8 -22 -20 -25 -22 -6 -28 -49
-9 -55 9 -3 9 -20 0 -69 -21 -125 -15 -148 46 -156 29 -4 44 -1 56 12 23 23
23 58 0 51 -39 -12 -45 6 -31 85 13 71 14 74 43 77 52 6 64 52 14 52 -31 0
-31 0 -25 40 l6 40 -34 0 c-22 0 -36 -6 -40 -16z"/>
<path d="M1848 534 c-16 -8 -28 -10 -28 -4 0 5 -15 10 -33 10 l-33 0 -22 -119
c-29 -155 -29 -151 11 -151 l34 0 16 91 c18 97 28 119 59 119 29 0 33 -26 16
-122 l-15 -88 37 0 37 0 16 98 c10 53 17 109 17 123 0 52 -56 74 -112 43z"/>
<path d="M875 528 c-5 -14 -45 -238 -45 -250 0 -4 16 -8 35 -8 19 0 35 2 35 4
0 6 39 213 45 244 5 20 2 22 -30 22 -20 0 -38 -6 -40 -12z"/>
<path d="M1465 518 c-25 -113 -35 -198 -26 -221 14 -35 53 -44 97 -24 19 9 34
12 34 7 0 -8 70 -16 70 -7 0 1 11 60 25 132 14 71 25 130 25 132 0 2 -15 3
-34 3 -38 0 -38 0 -56 -95 -6 -33 -13 -70 -15 -81 -5 -24 -52 -41 -68 -25 -9
9 0 92 20 179 5 20 1 22 -31 22 -29 0 -37 -4 -41 -22z"/>
<path d="M815 208 c-6 -19 -25 -142 -25 -161 0 -19 34 -23 74 -7 35 13 54 54
36 75 -10 12 -10 19 -2 27 18 18 14 56 -7 68 -27 14 -71 13 -76 -2z m58 -35
c8 -7 -11 -33 -24 -33 -5 0 -9 9 -9 20 0 19 20 27 33 13z m-3 -83 c0 -13 -7
-20 -20 -20 -13 0 -20 7 -20 20 0 13 7 20 20 20 13 0 20 -7 20 -20z"/>
<path d="M950 205 c0 -8 7 -15 15 -15 8 0 15 7 15 15 0 8 -7 15 -15 15 -8 0
-15 -7 -15 -15z"/>
<path d="M1001 143 c-7 -43 -15 -86 -18 -96 -4 -14 0 -18 13 -15 14 2 21 19
30 78 16 99 16 110 0 110 -9 0 -17 -25 -25 -77z"/>
<path d="M1395 198 c-9 -41 -25 -141 -25 -155 0 -7 7 -13 15 -13 8 0 15 8 15
18 0 9 5 24 10 32 7 12 12 8 21 -17 6 -18 18 -33 26 -33 10 0 13 6 9 16 -18
48 -18 67 3 95 19 26 20 29 4 29 -9 0 -27 -12 -39 -27 l-22 -28 8 45 c12 60
12 60 -5 60 -8 0 -17 -10 -20 -22z"/>
<path d="M1886 194 c-5 -18 -12 -24 -22 -20 -9 3 -26 -5 -40 -19 -21 -21 -25
-33 -22 -73 l3 -47 42 -2 c40 -2 43 0 47 30 3 18 10 59 16 91 5 33 10 61 10
63 0 2 -6 3 -14 3 -8 0 -17 -12 -20 -26z m-14 -88 c-4 -37 -29 -56 -38 -31
-10 25 5 65 24 65 15 0 17 -7 14 -34z"/>
<path d="M1620 190 c0 -11 -4 -20 -8 -20 -6 0 -9 -102 -3 -132 2 -12 39 -9 47
3 4 7 0 15 -8 20 -21 12 -11 76 13 82 23 6 25 27 3 27 -11 0 -15 6 -11 20 4
15 0 20 -14 20 -12 0 -19 -7 -19 -20z"/>
<path d="M1203 169 c-14 -5 -26 -23 -34 -48 -19 -64 19 -107 75 -85 26 10 20
35 -7 29 -15 -4 -28 -1 -36 9 -12 14 -9 16 23 16 40 0 52 15 42 54 -7 27 -32
37 -63 25z m35 -37 c2 -7 -6 -12 -17 -12 -21 0 -27 11 -14 24 9 9 26 2 31 -12z"/>
<path d="M1723 169 c-42 -15 -59 -92 -27 -123 21 -22 61 -20 73 3 9 17 7 19
-21 17 -17 0 -33 5 -35 12 -3 8 7 12 30 12 37 0 52 18 42 51 -9 26 -36 38 -62
28z m35 -37 c2 -7 -7 -12 -23 -12 -24 0 -26 2 -15 15 14 17 31 16 38 -3z"/>
<path d="M935 123 c-3 -27 -9 -58 -12 -70 -4 -16 -1 -23 10 -23 19 0 23 12 32
83 6 47 5 57 -8 57 -10 0 -17 -15 -22 -47z"/>
<path d="M1056 133 c12 -92 15 -103 30 -103 9 0 27 27 44 66 35 77 34 74 15
74 -8 0 -23 -19 -34 -42 l-19 -43 -1 43 c-1 35 -4 42 -20 42 -17 0 -19 -5 -15
-37z"/>
<path d="M1291 106 c-14 -78 -14 -76 3 -76 9 0 17 18 22 48 7 38 13 48 32 50
13 2 22 10 22 21 0 13 -9 17 -34 18 l-34 1 -11 -62z"/>
<path d="M1513 163 c-7 -2 -13 -18 -13 -34 0 -22 6 -32 25 -39 35 -13 32 -34
-4 -27 -38 8 -52 -20 -15 -29 63 -16 105 52 49 78 -32 14 -26 34 9 30 18 -2
26 2 26 13 0 10 -10 15 -32 14 -18 0 -39 -3 -45 -6z"/>
</g>
</svg>
